<svg id="Layer_1" data-name="Layer 1" xmlns="http://www.w3.org/2000/svg" viewBox="0 0 40.95 36.08"><defs><style>.cls-1{fill:#303030;}</style></defs><title>chain</title><path class="cls-1" d="M44.32,8.86a3.39,3.39,0,0,0,.15-.77A5.64,5.64,0,0,0,44,6.31c-.27-.64-.74-1.41-1.4-1.42A2.19,2.19,0,0,0,41,6a3.63,3.63,0,0,0-.79,2h0a3.78,3.78,0,0,0,.59,1.9,4.14,4.14,0,0,0-.49.79,3.06,3.06,0,0,0-.31,1,3.72,3.72,0,0,0,.46,1.94,4.24,4.24,0,0,0-.55.75,3.42,3.42,0,0,0-.23.5,2.86,2.86,0,0,0-.14.51,3.58,3.58,0,0,0,.32,2,4.21,4.21,0,0,0-.61.7,3.4,3.4,0,0,0-.45,1h0a2.89,2.89,0,0,0-.06,1.08A5,5,0,0,0,39,21a3.79,3.79,0,0,0-1.21,1.54h0a2.88,2.88,0,0,0-.15,1.06,4.58,4.58,0,0,0,.1.9,3.68,3.68,0,0,0-1.36,1.39h0a3.31,3.31,0,0,0-.27,1,4.31,4.31,0,0,0,0,.9,4.15,4.15,0,0,0-.78.45l-.2.16-.2.17a2.54,2.54,0,0,0-.34.4h0A3.75,3.75,0,0,0,34,30.83a4.25,4.25,0,0,0-.84.32c-.15.08-.3.17-.43.26a2.43,2.43,0,0,0-.4.34,2.7,2.7,0,0,0-.3.41,3,3,0,0,0-.25.47,4.85,4.85,0,0,0-.25.84,5.3,5.3,0,0,0-.85.17,3.06,3.06,0,0,0-.92.45h0a3.72,3.72,0,0,0-1.08,1.53l-.34,0c-.18,0-.35,0-.51,0a3.74,3.74,0,0,0-.5.08,2.38,2.38,0,0,0-.48.17h0a3.35,3.35,0,0,0-.42.25,3,3,0,0,0-.37.33,4.26,4.26,0,0,0-.53.63l-.27-.1L25,36.91l-.15,0-.27-.06-.15,0H24l0,.37,0,.37v-.37l.1.38h.09l.15,0,.21,0,.16,0,.25.07.12,0a3.43,3.43,0,0,0-.17.36,1.6,1.6,0,0,0-.11.9,1.05,1.05,0,0,0,.64.69l-.18.12-.45.22-.43.14a1.68,1.68,0,0,1-.3,0H24l-.19,0-.22,0-.23-.08L23.17,40l-.24-.12-.2-.11a1.06,1.06,0,0,0,.62-.71,1.58,1.58,0,0,0-.13-.89,3.4,3.4,0,0,0-.17-.37l.1,0,.12,0,.27-.09.14,0,.17,0,.13,0h.1l0-.37-.16-.36-.13,0a1.77,1.77,0,0,0-.3.07l-.1,0L23,37l-.11,0-.27.11A3.54,3.54,0,0,0,21.3,36a3.69,3.69,0,0,0-1.83-.22c0-.1-.09-.21-.14-.3a4.2,4.2,0,0,0-.26-.46,3.11,3.11,0,0,0-.31-.4,2.31,2.31,0,0,0-.38-.36,2.24,2.24,0,0,0-.44-.25,3.06,3.06,0,0,0-.49-.19,4.1,4.1,0,0,0-.58-.13l-.28,0a5.37,5.37,0,0,0-.26-.83,3.06,3.06,0,0,0-.55-.87h0a2.7,2.7,0,0,0-.85-.6,4.28,4.28,0,0,0-.83-.32,4.38,4.38,0,0,0-.13-.88,3.2,3.2,0,0,0-.18-.5,2.9,2.9,0,0,0-.24-.45,2.77,2.77,0,0,0-.75-.73A4.13,4.13,0,0,0,12,28a5,5,0,0,0,0-.89,2.92,2.92,0,0,0-.29-1,2.82,2.82,0,0,0-.65-.84,3.91,3.91,0,0,0-.42-.34l-.3-.2a4.15,4.15,0,0,0,.1-.9,3,3,0,0,0-.16-1.05,3,3,0,0,0-.55-.9,4.19,4.19,0,0,0-.66-.63,3.73,3.73,0,0,0,.13-2h0a3.79,3.79,0,0,0-1.07-1.65c0-.11.1-.23.13-.34a4.4,4.4,0,0,0,.14-.53,2.91,2.91,0,0,0,0-1.09h0a3.79,3.79,0,0,0-.93-1.74A4.71,4.71,0,0,0,7.86,13a2.71,2.71,0,0,0-.2-2.13,4.68,4.68,0,0,0-.49-.78,4.19,4.19,0,0,0,.4-.85,3.4,3.4,0,0,0,.13-.53,2.91,2.91,0,0,0,0-.53,3.6,3.6,0,0,0-.79-2A2.23,2.23,0,0,0,5.38,5.13h0C4.67,5.13,4.2,6,4,6.55a5.66,5.66,0,0,0-.46,1.77,5.09,5.09,0,0,0,.57,1.77c0,.08.08.14.12.21s-.07.14-.1.22-.12.35-.17.54-.08.34-.11.5a3.53,3.53,0,0,0-.07.78,3.52,3.52,0,0,0,.21.76c.06.15.12.31.2.48s.17.33.27.48l.14.2c0,.08-.06.14-.08.23a7.42,7.42,0,0,0-.22,1.06,3.45,3.45,0,0,0,0,.79A5.45,5.45,0,0,0,5.09,18l.15.19c0,.08,0,.15-.06.24a7.51,7.51,0,0,0-.13,1.07,3.14,3.14,0,0,0,.06.8,3.57,3.57,0,0,0,.33.72,5.58,5.58,0,0,0,.62.88l.17.18c0,.08,0,.15,0,.24a5.77,5.77,0,0,0,0,1.08,3.59,3.59,0,0,0,.14.78,3.57,3.57,0,0,0,.4.69,5.91,5.91,0,0,0,.72.82l.19.16c0,.09,0,.16,0,.25A5.53,5.53,0,0,0,7.95,28a5.5,5.5,0,0,0,1.3,1.38l.21.14c0,.08,0,.15,0,.24a4.93,4.93,0,0,0,.57,1.8,5.07,5.07,0,0,0,1.49,1.21l.24.12c0,.08,0,.15.05.23a5,5,0,0,0,.85,1.7,2.42,2.42,0,0,0,.68.5,5.52,5.52,0,0,0,1,.47l.25.07c0,.08.06.16.1.25a6.68,6.68,0,0,0,.58.93,3,3,0,0,0,.58.61,3,3,0,0,0,.74.36,6,6,0,0,0,1.08.28l.26,0,.15.23a6.42,6.42,0,0,0,.77.81,3.76,3.76,0,0,0,.69.48,3.85,3.85,0,0,0,.81.2c.17,0,.36,0,.55,0h.23l.37,0,.27,0,.25.19.26.17.27.15.29.15.33.13.24.08.27.06L24,41h.21a2.33,2.33,0,0,0,.46-.07,5.13,5.13,0,0,0,.52-.17l.53-.26c.17-.1.34-.22.5-.33a2.76,2.76,0,0,0,.23-.2l.28,0H27a4.5,4.5,0,0,0,1.68-.28,3.33,3.33,0,0,0,.68-.49,5.74,5.74,0,0,0,.75-.82l.15-.22.27,0a6.85,6.85,0,0,0,1.07-.29,3.68,3.68,0,0,0,.73-.37,2.12,2.12,0,0,0,.27-.25c.09-.1.18-.22.29-.36a5.45,5.45,0,0,0,.58-.95c0-.09.06-.16.1-.24l.26-.07a5,5,0,0,0,1.65-1,3.72,3.72,0,0,0,.44-.68,6.64,6.64,0,0,0,.4-1c0-.08,0-.17.06-.25l.23-.12a7.51,7.51,0,0,0,.91-.62,3.38,3.38,0,0,0,.56-.58,3.69,3.69,0,0,0,.33-.74,7.1,7.1,0,0,0,.23-1.06c0-.09,0-.16,0-.25l.22-.16a5.1,5.1,0,0,0,1.28-1.39,3.65,3.65,0,0,0,.22-.77,5.3,5.3,0,0,0,.1-1.09c0-.09,0-.16,0-.25l.19-.17c.13-.13.26-.27.39-.41s.22-.28.32-.42a3.61,3.61,0,0,0,.4-.69,3.36,3.36,0,0,0,.14-.8,7.52,7.52,0,0,0,0-1.07c0-.09,0-.16,0-.24l.18-.19a5.66,5.66,0,0,0,.93-1.59,5,5,0,0,0-.07-1.88c0-.07,0-.16-.06-.23l.16-.2a5.7,5.7,0,0,0,.79-1.66,5.06,5.06,0,0,0-.23-1.86c0-.08-.05-.15-.08-.23l.14-.2a5.26,5.26,0,0,0,.66-1.73,4.91,4.91,0,0,0-.35-1.82c0-.08-.07-.14-.1-.22s.08-.13.12-.21A7.33,7.33,0,0,0,44.32,8.86ZM21.74,38.64a.83.83,0,0,1,.32-.35l.31-.19a2.74,2.74,0,0,1,.16.33.88.88,0,0,1,.09.47s-.08.13-.27.21a2,2,0,0,1-.3.09C21.81,38.95,21.71,38.72,21.74,38.64ZM19,37.42s-.11.1-.33.14l-.29,0a2.28,2.28,0,0,1-.13-.26c-.07-.21-.06-.32,0-.35a.8.8,0,0,1,.39-.26l.36-.12A1.32,1.32,0,0,1,19,37.42Zm-3.19-2.24a.52.52,0,0,1-.35.08l-.29,0c-.11-.36-.1-.58,0-.64a.82.82,0,0,1,.43-.18,2.68,2.68,0,0,1,.38,0A1.29,1.29,0,0,1,15.81,35.18Zm-3.37-2.85c0-.36,0-.59.07-.63a.84.84,0,0,1,.45-.11H13l.32,0h0a1.31,1.31,0,0,1-.27.8S12.8,32.46,12.44,32.33Zm-2.25-3.26a2,2,0,0,1,0-.28c0-.21.1-.31.14-.34a.62.62,0,0,1,.29-.06,2.31,2.31,0,0,1,.55.09,1.3,1.3,0,0,1-.38.74C10.74,29.28,10.53,29.25,10.19,29.07ZM4.28,8.31a5.1,5.1,0,0,1,.4-1.48c.3-.72.6-1,.7-1h0c.2,0,.59.24,1,.76A2.89,2.89,0,0,1,7,8.22H7a2.16,2.16,0,0,1,0,.4,2.59,2.59,0,0,1-.1.42,3.38,3.38,0,0,1-.22.5A1.78,1.78,0,0,0,5.44,9a1.1,1.1,0,0,0-.79.49A4.21,4.21,0,0,1,4.28,8.31Zm1.94,1.86a1.29,1.29,0,0,1-.7.5s-.22-.08-.46-.43c.2-.37.36-.47.42-.48h0A1.3,1.3,0,0,1,6.22,10.17ZM4.86,13.25c-.07-.15-.13-.29-.18-.42a2.7,2.7,0,0,1-.16-.56,2.71,2.71,0,0,1,.06-.58c0-.14.06-.29.09-.44s0-.14.07-.21a1.12,1.12,0,0,0,.78.39h.06a1.84,1.84,0,0,0,1.13-.66,4.35,4.35,0,0,1,.28.48,2,2,0,0,1,.15,1.59,4.28,4.28,0,0,1-.19.52,1.81,1.81,0,0,0-1.23-.44,1.09,1.09,0,0,0-.75.54ZM6.57,14a1.28,1.28,0,0,1-.65.54c-.06,0-.24-.06-.5-.39.17-.38.33-.5.38-.5h0A1.4,1.4,0,0,1,6.57,14ZM5,16.21a2.7,2.7,0,0,1,0-.58A6.78,6.78,0,0,1,5.16,15a1.16,1.16,0,0,0,.75.33H6a1.83,1.83,0,0,0,1.08-.74,3,3,0,0,1,.61,1.22,2.18,2.18,0,0,1,0,.8,3.75,3.75,0,0,1-.12.45l0,.09a3.14,3.14,0,0,0-.35-.19,1.5,1.5,0,0,0-.91-.16,1.1,1.1,0,0,0-.72.59A4.63,4.63,0,0,1,5,16.21Zm2.18,1.58a1.28,1.28,0,0,1-.61.59s-.24,0-.53-.35a2.29,2.29,0,0,1,.11-.27c.1-.2.2-.26.24-.27h.06a1,1,0,0,1,.39.11A2.4,2.4,0,0,1,7.21,17.79ZM6.1,20.65a2.82,2.82,0,0,1-.26-.53,2.39,2.39,0,0,1,0-.58,6.65,6.65,0,0,1,.08-.67,1.2,1.2,0,0,0,.7.27l.19,0a1.83,1.83,0,0,0,1-.82,3,3,0,0,1,.7,1.16,2.75,2.75,0,0,1-.07,1.34,1.85,1.85,0,0,0-1.28-.23,1.08,1.08,0,0,0-.66.66A5.86,5.86,0,0,1,6.1,20.65Zm2.06.85a1.3,1.3,0,0,1-.55.64s-.24,0-.56-.3c.09-.36.21-.54.29-.56h.1A1.66,1.66,0,0,1,8.16,21.5Zm-.82,3A2.73,2.73,0,0,1,7,23.95a2.81,2.81,0,0,1-.1-.59,4.51,4.51,0,0,1,0-.67,1.28,1.28,0,0,0,.64.22.83.83,0,0,0,.27,0,1.84,1.84,0,0,0,.93-.91,3.34,3.34,0,0,1,.38.39,2.32,2.32,0,0,1,.43.68h0a2.35,2.35,0,0,1,.11.8,3.27,3.27,0,0,1,0,.54,1.85,1.85,0,0,0-1.3-.09,1.08,1.08,0,0,0-.58.72A4.64,4.64,0,0,1,7.33,24.46Zm2.13.64a2.7,2.7,0,0,1-.16.34.83.83,0,0,1-.31.34s-.15,0-.35-.08l-.24-.16c.06-.41.18-.57.23-.59a.5.5,0,0,1,.18,0A2,2,0,0,1,9.46,25.1Zm-.84,2.56a4.71,4.71,0,0,1-.24-1.26,1.41,1.41,0,0,0,.56.14.86.86,0,0,0,.37-.08,1.5,1.5,0,0,0,.65-.65,3.41,3.41,0,0,0,.17-.36l.1.06a3.34,3.34,0,0,1,.35.28,2.07,2.07,0,0,1,.48.62h0a2.18,2.18,0,0,1,.22.76,3.86,3.86,0,0,1,0,.56,1.85,1.85,0,0,0-1.3.06,1.12,1.12,0,0,0-.49.79A4.72,4.72,0,0,1,8.62,27.66Zm2.07,3.48a4.19,4.19,0,0,1-.41-1.22,1.53,1.53,0,0,0,.45.08.87.87,0,0,0,.48-.13,1.83,1.83,0,0,0,.67-1.09,3.39,3.39,0,0,1,.49.27,2.07,2.07,0,0,1,.56.54h0a2.11,2.11,0,0,1,.18.34,2.45,2.45,0,0,1,.13.39,3.19,3.19,0,0,1,.09.54l-.39,0a1.51,1.51,0,0,0-.88.26,1.11,1.11,0,0,0-.38.85A4.14,4.14,0,0,1,10.69,31.14Zm3.05,3.51a2.06,2.06,0,0,1-.49-.34,4.31,4.31,0,0,1-.6-1.15l.27,0a.94.94,0,0,0,.64-.22,1.85,1.85,0,0,0,.51-1.2,3.58,3.58,0,0,1,.52.21,2,2,0,0,1,.63.44,2.32,2.32,0,0,1,.42.65,5,5,0,0,1,.18.53,3.17,3.17,0,0,0-.4.05,1.52,1.52,0,0,0-.82.4,1.08,1.08,0,0,0-.23.9A6.3,6.3,0,0,1,13.74,34.66ZM16.32,37a2.32,2.32,0,0,1-.42-.45,6.5,6.5,0,0,1-.38-.58,1.1,1.1,0,0,0,.87-.34,1.87,1.87,0,0,0,.3-1.26l.12,0,.42.1a2.49,2.49,0,0,1,.39.15,1.64,1.64,0,0,1,.31.17h0a1.61,1.61,0,0,1,.27.25,2.47,2.47,0,0,1,.25.31,3.51,3.51,0,0,1,.22.38l0,.09-.38.12a1.52,1.52,0,0,0-.73.54,1.09,1.09,0,0,0-.06.93,6.78,6.78,0,0,1-.67-.19A2.43,2.43,0,0,1,16.32,37ZM21,39.31l-.48,0a3.23,3.23,0,0,1-.61-.14,3,3,0,0,1-.51-.37,5.21,5.21,0,0,1-.49-.5,1.09,1.09,0,0,0,.79-.5,1.85,1.85,0,0,0,.05-1.29l.24,0a2.49,2.49,0,0,1,1,.18h0a2.69,2.69,0,0,1,.95.83,3.3,3.3,0,0,0-.33.21,1.55,1.55,0,0,0-.58.7,1.06,1.06,0,0,0,.15.92ZM37.31,29a1.29,1.29,0,0,1-.39-.75,2.36,2.36,0,0,1,.38-.08.86.86,0,0,1,.46,0s.1.11.14.34a1.86,1.86,0,0,1,0,.28C37.6,29,37.38,29.08,37.31,29ZM35.7,32.15l-.28.09c-.21,0-.32,0-.36,0a1.3,1.3,0,0,1-.27-.8l.33,0a.9.9,0,0,1,.5.11s.08.12.09.35A2.08,2.08,0,0,1,35.7,32.15Zm-2.64,2.63a2,2,0,0,1-.07.28c-.37.07-.59,0-.64,0a1.32,1.32,0,0,1-.14-.83,1.3,1.3,0,0,1,.81.22S33.1,34.55,33.07,34.78Zm-3.25,2.67h-.3a.48.48,0,0,1-.32-.13.83.83,0,0,1,0-.47,2.57,2.57,0,0,1,.07-.37h0l.36.1a.81.81,0,0,1,.39.26C30,36.89,30,37.12,29.81,37.45Zm-3.46,1.46a1.69,1.69,0,0,1-.19.23c-.36-.09-.55-.23-.57-.29a.94.94,0,0,1,.08-.48,2.63,2.63,0,0,1,.15-.33c.48.25.61.45.64.53S26.48,38.71,26.36,38.91Zm2.49-.25a2.64,2.64,0,0,1-.51.37,4.07,4.07,0,0,1-1.3.19,1.07,1.07,0,0,0,.14-.92,1.89,1.89,0,0,0-.94-.89A3.22,3.22,0,0,1,26.6,37a2.33,2.33,0,0,1,.29-.25,2.41,2.41,0,0,1,.31-.19,1.54,1.54,0,0,1,.32-.11,2.92,2.92,0,0,1,.41-.07,3.25,3.25,0,0,1,.44,0h.1a3.17,3.17,0,0,0-.07.4,1.54,1.54,0,0,0,.14.9,1.09,1.09,0,0,0,.79.49C29.16,38.35,29,38.53,28.84,38.66Zm3.44-2.24-.24.3a1.26,1.26,0,0,1-.16.15,2.82,2.82,0,0,1-.55.27,5.76,5.76,0,0,1-.66.19,1.07,1.07,0,0,0-.08-.93,1.55,1.55,0,0,0-.74-.54,3.19,3.19,0,0,0-.38-.11,2.84,2.84,0,0,1,.77-1.05,2.34,2.34,0,0,1,.69-.34,5.13,5.13,0,0,1,.55-.12,1.89,1.89,0,0,0,.31,1.26,1.05,1.05,0,0,0,.86.34h0A6,6,0,0,1,32.29,36.42Zm3-2.81a2.87,2.87,0,0,1-.34.53,4.16,4.16,0,0,1-1.1.65,1.11,1.11,0,0,0-.24-.9,1.81,1.81,0,0,0-1.22-.44,3.76,3.76,0,0,1,.17-.52,2.56,2.56,0,0,1,.19-.36,1.94,1.94,0,0,1,.22-.3h0A1.58,1.58,0,0,1,33.2,32c.12-.08.24-.15.37-.22a3.29,3.29,0,0,1,.51-.21,1.85,1.85,0,0,0,.52,1.19,1,1,0,0,0,.63.21l.28,0A5.31,5.31,0,0,1,35.24,33.61Zm2.45-3.23a2.9,2.9,0,0,1-.24.56,2.7,2.7,0,0,1-.42.42,6.8,6.8,0,0,1-.57.4,1.1,1.1,0,0,0-.38-.85,1.85,1.85,0,0,0-1.28-.23,2.91,2.91,0,0,1,.39-1.28,1.79,1.79,0,0,1,.24-.27L35.6,29l.16-.13a3.33,3.33,0,0,1,.47-.28,1.82,1.82,0,0,0,.68,1.1.88.88,0,0,0,.48.13,1.49,1.49,0,0,0,.45-.08A6,6,0,0,1,37.69,30.38Zm1.95-3.52a2.8,2.8,0,0,1-.16.6,4.2,4.2,0,0,1-.86.93,1.11,1.11,0,0,0-.5-.79,1.48,1.48,0,0,0-.91-.13,2.9,2.9,0,0,0-.39.08,3.44,3.44,0,0,1,0-.56,2.58,2.58,0,0,1,.21-.77,2.77,2.77,0,0,1,.91-1,1.86,1.86,0,0,0,.83,1,.85.85,0,0,0,.36.08,1.37,1.37,0,0,0,.57-.16A5,5,0,0,1,39.64,26.85Zm-1-2a1.31,1.31,0,0,1,.84-.14s.17.18.23.59c-.34.24-.53.27-.58.24A1.31,1.31,0,0,1,38.62,24.88Zm2.53-1.74a2.61,2.61,0,0,1-.09.58,2.74,2.74,0,0,1-.31.51c-.08.12-.17.24-.27.36l-.16.17a1.08,1.08,0,0,0-.58-.72,1.85,1.85,0,0,0-1.28.1,3.73,3.73,0,0,1-.07-.55,2.15,2.15,0,0,1,.11-.78,3,3,0,0,1,.81-1.08,1.83,1.83,0,0,0,.93.91.82.82,0,0,0,.26,0,1.28,1.28,0,0,0,.65-.22A6.7,6.7,0,0,1,41.15,23.14Zm-1.24-1.85a1.29,1.29,0,0,1,.81-.23s.13.08.22.29a2.07,2.07,0,0,1,.08.27c-.31.27-.5.32-.56.3A1.28,1.28,0,0,1,39.91,21.29Zm2.31-1.41a4.8,4.8,0,0,1-.63,1.1,1.11,1.11,0,0,0-.67-.65,1.82,1.82,0,0,0-1.27.25,4,4,0,0,1-.12-.55,2.16,2.16,0,0,1,0-.79,2.68,2.68,0,0,1,.35-.74,3.32,3.32,0,0,1,.35-.43,1.82,1.82,0,0,0,1,.82l.18,0a1.23,1.23,0,0,0,.71-.29A4.17,4.17,0,0,1,42.22,19.88Zm-1.38-2.31a1.26,1.26,0,0,1,.79-.31s.11,0,.24.28a1.74,1.74,0,0,1,.1.25c-.27.28-.46.37-.53.35A1.26,1.26,0,0,1,40.84,17.57ZM43,16a4.83,4.83,0,0,1-.53,1.15,1.11,1.11,0,0,0-.72-.59,1.8,1.8,0,0,0-1.25.36,2.68,2.68,0,0,1-.2-1.35h0a2.15,2.15,0,0,1,.11-.38,2.59,2.59,0,0,1,.18-.39,3.32,3.32,0,0,1,.31-.45,1.82,1.82,0,0,0,1.08.73h.12a1.16,1.16,0,0,0,.75-.34A4.09,4.09,0,0,1,43,16Zm-1.56-2.19a2.44,2.44,0,0,1,.33-.22.91.91,0,0,1,.41-.14h0s.15.07.26.25a2.25,2.25,0,0,1,.13.26c-.26.32-.43.4-.5.39A1.27,1.27,0,0,1,41.45,13.78Zm2-1.76a4.56,4.56,0,0,1-.44,1.18,1.11,1.11,0,0,0-.76-.53,1.51,1.51,0,0,0-.89.23,3.09,3.09,0,0,0-.33.22,2.77,2.77,0,0,1-.3-1.33h0A2.32,2.32,0,0,1,41,11a3.37,3.37,0,0,1,.27-.47,1.83,1.83,0,0,0,1.13.66h.06a1.12,1.12,0,0,0,.78-.39A4.2,4.2,0,0,1,43.5,12ZM41.79,9.94a1.31,1.31,0,0,1,.73-.41h0c.05,0,.22.11.42.47-.24.34-.42.43-.46.43A1.29,1.29,0,0,1,41.79,9.94Zm.77-1.16a1.83,1.83,0,0,0-1.19.53A3,3,0,0,1,41,8a2.92,2.92,0,0,1,.64-1.59c.38-.52.77-.76,1-.76s.4.24.71,1a5.11,5.11,0,0,1,.4,1.47,2.65,2.65,0,0,1-.12.56,6.45,6.45,0,0,1-.25.64A1.1,1.1,0,0,0,42.56,8.79Z" transform="translate(-3.53 -4.89)"/></svg>