<svg id="Layer_1" data-name="Layer 1" xmlns="http://www.w3.org/2000/svg" viewBox="0 0 37.69 30.71"><defs><style>.cls-1{fill:#303030;}</style></defs><title>earrings</title><path class="cls-1" d="M42.28,29.25a9.38,9.38,0,0,0-1-2.59h0l-.06-.07a4.32,4.32,0,0,0-.65-.85,2.84,2.84,0,0,0-1.22-.68h0L39.14,25a2.27,2.27,0,0,1-.38-.13c-.23-.12-.22-.42.38-1.62A11.71,11.71,0,0,0,40.89,17a6.72,6.72,0,0,0-.76-2.93,5.38,5.38,0,0,0-2-2.11A7.73,7.73,0,0,0,33.81,11h0c-2.82.13-5.59,1.7-7.68,2.88l-.44.25c-.1-.48-.19-1.08-.29-1.68s-.15-1-.22-1.34A3.16,3.16,0,0,0,23.7,8.77a1.6,1.6,0,0,0-.88-.17,1.52,1.52,0,0,0-.81.34,2.71,2.71,0,0,0-.79,2.34c0,.47.06.83.08,1.18a20.5,20.5,0,0,1,.08,2.65v.16h-.76a6.47,6.47,0,0,0-.94.06c-.37.06-.58.12-.71.26s-.14.35-.1.69a1.75,1.75,0,0,0,.13.48,1.35,1.35,0,0,0,.25.38,1.83,1.83,0,0,0,.91.5,6.23,6.23,0,0,0,1,.16c0,.58-.17,1.49-.34,2.54-.13.85-.28,1.79-.4,2.75a18.48,18.48,0,0,0,.55,7.31,11.52,11.52,0,0,0,3.19,5.38,9.92,9.92,0,0,0,1.79,1.28,8.86,8.86,0,0,0,2,.81,3.84,3.84,0,0,0,2.9,0l.38-.1c.52-.14,1.38-.37,1.63-.41a2,2,0,0,1,.65.19,2.32,2.32,0,0,0,1.28.21c.52,0,1.22,0,1.93,0s1.44.09,2,.13a4.52,4.52,0,0,0,1.68-.15,1.62,1.62,0,0,0,.47-.17,2.27,2.27,0,0,0,.38-.27v0a2.63,2.63,0,0,0,.32-.26,5.36,5.36,0,0,0,1.15-3A13.64,13.64,0,0,0,42.28,29.25ZM25.64,14.75h0l.72-.41c2-1.16,4.76-2.7,7.47-2.82a7.27,7.27,0,0,1,4,.84,4.91,4.91,0,0,1,1.86,1.92A6.25,6.25,0,0,1,40.42,17a11.25,11.25,0,0,1-1.69,6h0a3.26,3.26,0,0,0-.56,1.81,5.42,5.42,0,0,0-2.31.29h0a7.88,7.88,0,0,0-2.62,1.67c-.48-2,.82-3.56,2.12-5.11s2.79-3.33,2.09-5.49h0a4.21,4.21,0,0,0-.45-.9,3.45,3.45,0,0,0-2.83-1.51,9.51,9.51,0,0,0-3.67.69,26.52,26.52,0,0,0-5.31,2.78l0,0-1.36.8c.07-.7.11-1.52.12-2.35l1.74-1Zm7.18,12.46a6.27,6.27,0,0,0-1.2,2.6,13.35,13.35,0,0,0-.27,3.67l-.45.16c-1.83.67-3,1.1-5.09-2-1.8-2.67-1.49-5-1.12-7.73,0-.36.1-.72.14-1.1.13-.55.27-1.43.39-2.35s.25-2.13.3-2.87l1.61-.95,0,0a23,23,0,0,1,3.52-1.69,9,9,0,0,1,3.48-.66,3,3,0,0,1,2.47,1.3,3.77,3.77,0,0,1,.4.8h0c.61,1.91-.68,3.46-2,5S32.07,24.86,32.82,27.21Zm-9.05-14.7a.7.7,0,0,1,.07-.52h0a.94.94,0,0,1,.29.62c.06.33.13.77.19,1.19s.1.79.13,1.05l-.57.32v0A20.4,20.4,0,0,0,23.77,12.51Zm.64,5.73a1.31,1.31,0,0,1-.33.8.22.22,0,0,1-.12.07.08.08,0,0,1-.06,0,.77.77,0,0,1-.14-.45ZM22.75,9.67c.06-.38.23-.59.59-.54l.15.06a2.71,2.71,0,0,1,1.22,2c.08.42.15.87.22,1.33.11.68.22,1.35.33,1.86l-.33.18c0-.25-.07-.55-.11-.87s-.13-.86-.19-1.22a1.37,1.37,0,0,0-.5-.94.5.5,0,0,0-.34-.07.49.49,0,0,0-.3.17,1.13,1.13,0,0,0-.18.9,20.07,20.07,0,0,1,.14,2.55c0,1.05-.05,2.14-.14,3a1.64,1.64,0,0,0,.25,1.27.54.54,0,0,0,.43.18.68.68,0,0,0,.42-.19A2,2,0,0,0,24.89,18l.13-.08c-.06.71-.15,1.63-.27,2.52s-.25,1.78-.38,2.31h0v0c0,.37-.09.74-.14,1.11-.38,2.82-.7,5.23,1.2,8.05a10.37,10.37,0,0,0,1.43,1.76,6.71,6.71,0,0,1-3-2.55,10.82,10.82,0,0,1-1.52-6.75c.12-1.73.26-3.23.39-4.66s.26-2.75.35-4.16a19.13,19.13,0,0,0-.2-3.44A10.62,10.62,0,0,1,22.75,9.67ZM20.27,17.2a1.39,1.39,0,0,1-.68-.36.89.89,0,0,1-.16-.25,1.32,1.32,0,0,1-.09-.36c0-.19,0-.29,0-.31a1.15,1.15,0,0,1,.44-.11,6.22,6.22,0,0,1,.87-.06h.72c0,.26,0,.51-.06.75s-.06.55-.1.85A5.92,5.92,0,0,1,20.27,17.2Zm10.4,20.15c-.42.35-1.27.47-2.68.08a8.43,8.43,0,0,1-1.85-.77,9.5,9.5,0,0,1-1.7-1.22,11,11,0,0,1-3-5.16,18,18,0,0,1-.53-7.12c.12-.94.26-1.88.4-2.74s.28-1.84.33-2.44h0c.08-.56.13-1,.18-1.45s.06-.67.08-1h0v-.08c0-.07,0-.13,0-.2v-.1h0a20.83,20.83,0,0,0-.08-2.7c0-.38-.06-.79-.08-1.17a2.26,2.26,0,0,1,.62-1.94l.05,0a2.08,2.08,0,0,0-.08.33,10.72,10.72,0,0,0,.13,2.56,18.87,18.87,0,0,1,.2,3.36c-.09,1.41-.22,2.74-.35,4.14s-.27,2.93-.4,4.67a11.29,11.29,0,0,0,1.59,7,6.9,6.9,0,0,0,4.83,3.17,2.44,2.44,0,0,0,.54.08,2.41,2.41,0,0,1,1.95,1.24,1.59,1.59,0,0,1,.2.84A.9.9,0,0,1,30.66,37.35Zm.68-.14a1.44,1.44,0,0,0,.11-.47,2.06,2.06,0,0,0-.25-1.1A2.89,2.89,0,0,0,30,34.45c.34-.1.69-.23,1.07-.36l.35-.13A7.45,7.45,0,0,0,32.09,36a5,5,0,0,0,.54.86C32.37,36.94,31.82,37.08,31.34,37.21Zm3.32.07a1.93,1.93,0,0,1-1.06-.17l-.08,0h0a2.68,2.68,0,0,1-1-1.24,6.78,6.78,0,0,1-.66-2.2h0a13,13,0,0,1,.24-3.7,5.69,5.69,0,0,1,1.18-2.5l.07-.08a9,9,0,0,1,1.48-1.17,9.1,9.1,0,0,0-1.31,4.43,10.48,10.48,0,0,0,1.29,6,6.23,6.23,0,0,0,.48.67Zm4,.15c-.56,0-1.29-.09-2-.13l-.73,0a5.55,5.55,0,0,1-.72-.93A10,10,0,0,1,34,30.64a7.62,7.62,0,0,1,1.67-4.74,2.58,2.58,0,0,1,.41-.33,5,5,0,0,1,3.15-.06l.32.11a1.71,1.71,0,0,0-1,.66,5.14,5.14,0,0,0-.83,1.61,11.8,11.8,0,0,0,.6,8.69,2.81,2.81,0,0,0,.31.44,2.68,2.68,0,0,0,.45.41ZM42.13,34a4.94,4.94,0,0,1-1,2.75,2.2,2.2,0,0,1-1,.58,1,1,0,0,1-.51-.06,1.84,1.84,0,0,1-.7-.53,2.24,2.24,0,0,1-.26-.36A11.29,11.29,0,0,1,38.1,28a4.69,4.69,0,0,1,.75-1.46,1.19,1.19,0,0,1,.85-.51c.35,0,.73.24,1.14.79a8.83,8.83,0,0,1,1,2.5A13.13,13.13,0,0,1,42.13,34Z" transform="translate(-5 -8.01)"/><path class="cls-1" d="M12,25.63a5,5,0,1,0,3.53,1.46A5,5,0,0,0,12,25.63Zm1,3.79,1,.76-.8,2.46H10.74l-.8-2.46L12,28.66Zm-4.22-2a4.47,4.47,0,0,1,2.92-1.29v2.06L9.59,29.81,7.73,29.4A4.48,4.48,0,0,1,8.86,27.44Zm0,6.34a4.32,4.32,0,0,1-1.24-3.9l1.83.41.83,2.55-1,1.31A4.5,4.5,0,0,1,8.86,33.79ZM12,35.1a4.44,4.44,0,0,1-2.32-.67l1-1.3h2.69l.88,1.35A4.44,4.44,0,0,1,12,35.1Zm4.48-4.49a4.32,4.32,0,0,1-1.84,3.61l-.9-1.37.83-2.56,1.83-.41A4.47,4.47,0,0,1,16.52,30.62Zm-2-.8-2.19-1.59V26.15a4.38,4.38,0,0,1,4,3.24Z" transform="translate(-5 -8.01)"/><path class="cls-1" d="M41.65,31.52a9.47,9.47,0,0,0-.58-2.91c-.33-.81-.78-1.3-1.28-1.28h0c-.51,0-.93.59-1.19,1.47a9.93,9.93,0,0,0-.31,3.1c0,.09,0,.16,0,.2A9.47,9.47,0,0,0,38.86,35c.33.81.78,1.3,1.28,1.28h0c.51,0,.93-.59,1.19-1.47a9.94,9.94,0,0,0,.31-3.1ZM39,28.94c.2-.68.47-1.12.76-1.13h0c.28,0,.57.36.82,1,0,.09.07.2.1.3l-.8,1-1-.83C39,29.17,39,29,39,28.94Zm-.28,3.14v-.19a10.78,10.78,0,0,1,.11-2.07l.89.75.07,2.26-.82.94A10.7,10.7,0,0,1,38.75,32.08Zm1.38,3.74h0c-.28,0-.57-.36-.82-1-.06-.15-.12-.33-.17-.51l.86-1,.78,1.71C40.58,35.52,40.36,35.81,40.13,35.82ZM41,34.37l-.68-1.5-.07-2.33.68-.89a10.44,10.44,0,0,1,.28,1.9v.19A9.93,9.93,0,0,1,41,34.37Z" transform="translate(-5 -8.01)"/><path class="cls-1" d="M17.18,25.71a1.31,1.31,0,0,1-.22-.32,1.29,1.29,0,0,1,0-.3c0-.16,0-.37,0-.67,0-.64-.09-1.79-.16-3.2-.16-3.26-.38-7.89-.58-10.67v-.1c0-.06,0-.13,0-.16a2.23,2.23,0,0,0-1.65-2.13A3.32,3.32,0,0,0,13.4,8a3.53,3.53,0,0,0-1.11.22,2.19,2.19,0,0,0-1.59,2.08s0,.08,0,.13,0,.06,0,.12,0,.31,0,.51,0,.5-.05.69l0,.23c0,.17-.06.34-.07.46-.21,1.53-.4,3.2-.51,5.07a59.44,59.44,0,0,0,0,6.17c-.23.13-.52.28-.81.41a9.06,9.06,0,0,0-.86.44,6.36,6.36,0,0,0-.8.61,9.47,9.47,0,0,0-.81.81,6.5,6.5,0,0,0-1.2,2A7.3,7.3,0,0,0,5,30.4a6.56,6.56,0,0,0,.41,2.35,7.85,7.85,0,0,0,1.25,2.19,9.28,9.28,0,0,0,2.15,2h0c.78.55.83.74.87.95a1.31,1.31,0,0,0,.11.33c.32.64,1.47.49,2.52.35a10.25,10.25,0,0,1,1-.1h0c.39,0,.77,0,1.12,0l.73,0c1,0,1.62-.26,1.62-1.7,0-.21,0-.37,0-.54s0-.2,0-.3l.09-.09.19-.18h0A8,8,0,0,0,17.38,26Zm-4.72-17a3,3,0,0,1,1-.19,2.82,2.82,0,0,1,1,.12,1.76,1.76,0,0,1,1.3,1.68c0,.08,0,.13,0,.18v.09c.2,2.8.42,7.41.58,10.65.07,1.42.12,2.59.16,3.2,0,.21,0,.35,0,.48a6.31,6.31,0,0,0-2.67-1.28l-.38-.06a6.06,6.06,0,0,0,0-1c0-.16,0-.32,0-.45,0-.52-.1-1-.14-1.45s-.09-.89-.13-1.35a1.89,1.89,0,0,0,1.76-.86,4.87,4.87,0,0,0,.31-2.24s0,0,0,0h0c0-.56,0-1.34-.1-2.09s-.11-1.47-.17-1.93a1.2,1.2,0,0,0-.54-1,1.24,1.24,0,0,0-.89-.07,1.32,1.32,0,0,0-.36-1,1.21,1.21,0,0,0-.55-.32,1.23,1.23,0,0,0-.64,0,1.36,1.36,0,0,0-.61.38A1.74,1.74,0,0,1,12.47,8.7Zm1.11,7.48a.8.8,0,0,0,.86.46l.15,0a3.7,3.7,0,0,1-.25,1.63c-.2.37-.6.58-1.37.62a22.13,22.13,0,0,1-.08-3.91c0-.34.06-.68.09-1A10.89,10.89,0,0,0,13.16,15,3.77,3.77,0,0,0,13.57,16.19Zm-.2-4.52a.89.89,0,0,1,.66,0,.74.74,0,0,1,.29.59c.06.44.12,1.15.17,1.9s.08,1.35.09,1.87h0a.61.61,0,0,1-.25.14c-.12,0-.23-.07-.33-.23a3.33,3.33,0,0,1-.35-1A16.42,16.42,0,0,1,13.37,11.67Zm-2.89,5.87c.11-1.86.3-3.51.51-5h0c0-.1,0-.26.07-.43s.06-.33.07-.44a2.39,2.39,0,0,1,.08-.39,2.75,2.75,0,0,1,.15-.39,1,1,0,0,1,.62-.57.74.74,0,0,1,.38,0,.72.72,0,0,1,.32.19.84.84,0,0,1,.22.69h0v.08a36.05,36.05,0,0,0-.49,3.66A22.74,22.74,0,0,0,12.48,19v.06c0,.52.1,1.07.16,1.64s.1,1,.14,1.45c0,.18,0,.33,0,.46a6.33,6.33,0,0,1,.05.86,7.55,7.55,0,0,0-2.46.11A58.48,58.48,0,0,1,10.47,17.53Zm4.73,20.52-.7,0c-.36,0-.75,0-1.17,0a10.45,10.45,0,0,0-1.08.11c-.88.12-1.84.24-2-.08a.91.91,0,0,1-.07-.22,1.2,1.2,0,0,0-.14-.38,7.11,7.11,0,0,0,2.91.2,8.1,8.1,0,0,0,3.35-1.25c0,.15,0,.31,0,.49C16.33,37.87,15.88,38.06,15.21,38.06Zm3.17-6.95a6.88,6.88,0,0,1-1.92,4.52,7.23,7.23,0,0,1-3.57,1.5A6.29,6.29,0,0,1,9,36.46a8.75,8.75,0,0,1-1.92-1.83,7.34,7.34,0,0,1-1.17-2.05,6.06,6.06,0,0,1-.38-2.17,6.74,6.74,0,0,1,.42-2.24A6,6,0,0,1,7,26.28a9.24,9.24,0,0,1,.77-.77A5.93,5.93,0,0,1,8.52,25a8.54,8.54,0,0,1,.81-.41l.46-.22h0a6.86,6.86,0,0,1,3.87-.19,5.32,5.32,0,0,1,3,1.75h0l.1.14.19.25A7.12,7.12,0,0,1,18.38,31.11Z" transform="translate(-5 -8.01)"/></svg>