<svg id="Layer_1" data-name="Layer 1" xmlns="http://www.w3.org/2000/svg" viewBox="0 0 23.93 34.37"><defs><style>.cls-1{fill:#303030;}</style></defs><title>lombardi</title><path class="cls-1" d="M35.68,39.28a.92.92,0,0,0-.11-.43l-1.78-3.27a.35.35,0,0,0-.31-.18H24.94v-.72l0,0A3.39,3.39,0,0,0,25.8,34a46.8,46.8,0,0,0,7.68-10.85l.36-.63c1.11-1.92,2.78-4.82,1.34-6.84A4.17,4.17,0,0,0,33,14.38l-.39-.14a9.33,9.33,0,0,1-4.3-3.42A7.45,7.45,0,0,1,27.1,7.93a.35.35,0,0,0,0-.07c-.17-.46-1.27-.7-3.29-.7s-3.09.23-3.28.68h0a.34.34,0,0,0,0,.09,7.79,7.79,0,0,1-1.19,2.83h0l0,0a8.84,8.84,0,0,1-1.71,1.89,8.86,8.86,0,0,1-2.59,1.53l-.38.14a4.13,4.13,0,0,0-2.18,1.31c-1.44,2,.24,4.94,1.36,6.87l.35.61c2.18,3.89,4.41,7.65,7.66,10.85a3.34,3.34,0,0,0,1,.7v.69H14.13a.35.35,0,0,0-.31.18L12,38.9a.89.89,0,0,0-.11.43v1.86a.35.35,0,0,0,.35.35H35.33a.35.35,0,0,0,.25-.1.35.35,0,0,0,.1-.25ZM23.39,35.75v-.91l.36,0H24a2.43,2.43,0,0,0,.25,0V36h-.85v-.28ZM21,8.53a9.13,9.13,0,0,0,2.75.29,9.17,9.17,0,0,0,2.74-.29q.08.33.19.66a14.21,14.21,0,0,1-2.94.24,13.9,13.9,0,0,1-2.94-.25C20.92,9,21,8.75,21,8.53Zm2.75-.66a13.64,13.64,0,0,1,2,.13,13.72,13.72,0,0,1-2,.13,13.71,13.71,0,0,1-2-.13A13.63,13.63,0,0,1,23.79,7.87Zm-4,3.4,0-.06a8.91,8.91,0,0,0,.76-1.37,14.07,14.07,0,0,0,3.2.29A13.93,13.93,0,0,0,27,9.85a8.7,8.7,0,0,0,.76,1.38,9.86,9.86,0,0,0,1.69,1.89,3.51,3.51,0,0,1,.09.58c.18,2.35.31,4.23-1,5.66L28.17,19a.35.35,0,0,0-.49,0l-2.33,2.33H22.19L19.86,19a.36.36,0,0,0-.5,0l-.39.39c-1.29-1.43-1.16-3.31-1-5.66a4.4,4.4,0,0,1,.08-.55A9.51,9.51,0,0,0,19.77,11.27Zm8.79,9.08-1.94,1.94L26,21.64l1.94-1.94.38.38h0ZM25.14,22v.91H22.4V22Zm-5.53-2.29,1.94,1.94-.64.64L19,20.35Zm-4.93,3.11-.35-.62c-1-1.77-2.58-4.45-1.4-6.11A3.57,3.57,0,0,1,14.77,15l.4-.14a9.34,9.34,0,0,0,2.12-1.13c-.18,2.38-.3,4.46,1.19,6.08l-.25.25a.35.35,0,0,0,0,.5L20.66,23a.35.35,0,0,0,.5,0l.55-.55v.77a.35.35,0,0,0,.35.35h3.44a.35.35,0,0,0,.35-.35v-.76l.54.54a.35.35,0,0,0,.49,0l2.43-2.43a.35.35,0,0,0,0-.5L29,19.84c1.49-1.63,1.37-3.71,1.18-6.1a9.45,9.45,0,0,0,2.14,1.15l.4.14a3.55,3.55,0,0,1,1.82,1.05c1.18,1.65-.36,4.32-1.38,6.09l-.36.64a45.51,45.51,0,0,1-7.56,10.7,2.78,2.78,0,0,1-.63.52l-.17.07a2,2,0,0,1-.61.06h-.11a3.24,3.24,0,0,1-.79-.08,2.66,2.66,0,0,1-.76-.57C19,30.37,16.83,26.66,14.68,22.82Zm-2.06,18V39.33a.2.2,0,0,1,0-.09l1.7-3.13h8.35v.28a.35.35,0,0,0,.35.35h1.55a.35.35,0,0,0,.35-.35V36.1h8.33L35,39.18a.2.2,0,0,1,0,.1h0v1.56Z" transform="translate(-11.8 -7.17)"/><path class="cls-1" d="M24.21,38.84H23.05a.35.35,0,1,0,0,.7h1.16a.35.35,0,1,0,0-.7Z" transform="translate(-11.8 -7.17)"/><path class="cls-1" d="M21.65,38.84H14.07a.35.35,0,1,0,0,.7h7.58a.35.35,0,1,0,0-.7Z" transform="translate(-11.8 -7.17)"/></svg>