<svg id="Layer_1" data-name="Layer 1" xmlns="http://www.w3.org/2000/svg" viewBox="0 0 24.15 38.87"><defs><style>.cls-1{fill:#303030;}</style></defs><title>pendants</title><path class="cls-1" d="M34.32,30.9h0a10,10,0,0,0-1.17-4.36h0a9.13,9.13,0,0,0-1-1.57,9.23,9.23,0,0,0-1.94-1.87A8.39,8.39,0,0,0,28.41,22h0a10,10,0,0,0-4.29-1h-.19a10.16,10.16,0,0,0-4.56,1.11h0a7.8,7.8,0,0,0-.7.38q-.35.22-.7.47h0a9.67,9.67,0,0,0-2.19,2.16h0a8.54,8.54,0,0,0-1,1.64A9.74,9.74,0,0,0,13.67,31a1.71,1.71,0,0,0,0,.35,10,10,0,0,0,1,4.45,8,8,0,0,0,.94,1.59h0a10.06,10.06,0,0,0,.71.88h0A10.17,10.17,0,0,0,18,39.79a9.91,9.91,0,0,0,1,.6h0a10.09,10.09,0,0,0,5,1.3,10.4,10.4,0,0,0,8.58-4.55,9.28,9.28,0,0,0,.79-1.39,10.2,10.2,0,0,0,1-4.4,2.26,2.26,0,0,0,0-.42Zm-1.6,4.56a8.56,8.56,0,0,1-.57,1,2.75,2.75,0,0,1-1.3-2,3.5,3.5,0,0,0,2.74-2.08A9.5,9.5,0,0,1,32.72,35.46ZM31,37.92c-.17.18-.34.36-.52.53s-.23.19-.35.29-.34.29-.53.42l-.39.25-.47.29a2.79,2.79,0,0,1-1.1-1.78,3.55,3.55,0,0,0,2.85-2.17,3.46,3.46,0,0,0,1.22,1.29c-.15.2-.29.4-.45.59ZM18.71,39.4l-.35-.23c-.17-.12-.34-.26-.5-.4l-.31-.25c-.18-.16-.34-.33-.5-.5l-.23-.23c-.15-.17-.28-.35-.42-.53a3.52,3.52,0,0,0,1.17-1.54,3.51,3.51,0,0,0,2.94,2,2.82,2.82,0,0,1-1.36,2Zm-4.11-5.85c0-.13,0-.27-.07-.4l0-.18a3.49,3.49,0,0,0,2.18,1.53l.08,0h.09l.25,0A2.83,2.83,0,0,1,16,36.7l-.2-.3-.13-.21a7,7,0,0,1-.35-.69,9.13,9.13,0,0,1-.4-1c0-.1-.06-.21-.1-.32S14.66,33.78,14.61,33.55Zm.56-6.05a3.53,3.53,0,0,0,1.76.7,2.81,2.81,0,0,1-2.54,2.49A9.17,9.17,0,0,1,15.17,27.5Zm1.13-2a8.48,8.48,0,0,1,.87-1c.1-.1.22-.2.33-.29s.38-.34.59-.5l.16.15.22.21a3.46,3.46,0,0,0,.34.25l.26.16a3.44,3.44,0,0,0,.37.16l.3.11a3.47,3.47,0,0,0,.38.07,2.87,2.87,0,0,1-2.65,2.69h-.16a2.83,2.83,0,0,1-1.83-.69A8,8,0,0,1,16.3,25.55Zm3.35-2.81h0a9.44,9.44,0,0,1,3.87-1,2.82,2.82,0,0,1-2.8,2.5h-.23a2.75,2.75,0,0,1-.57-.1L19.77,24a2.76,2.76,0,0,1-.35-.15l-.19-.11a2.79,2.79,0,0,1-.29-.21l-.17-.15-.1-.11.09-.06A7.32,7.32,0,0,1,19.65,22.73Zm5.19-1,.42,0,.59.1.39.08c.22.05.43.12.64.19l.31.1a9.55,9.55,0,0,1,.93.39,6.89,6.89,0,0,1,.76.4l.24.15.36.25a2.85,2.85,0,0,1-2.22,1.06H27.1a2.81,2.81,0,0,1-2.67-2.77Zm7.89,5.54a9.31,9.31,0,0,1,.86,3.26h-.05a1.91,1.91,0,0,0-.42,0,2.83,2.83,0,0,1-2.29-2.47A3.41,3.41,0,0,0,32.73,27.28ZM26.91,38a2.83,2.83,0,0,1-5.66-.16s0-.1,0-.15l.11,0a3.5,3.5,0,0,0,.67-.19l.1,0a3.51,3.51,0,0,0,.66-.38l.15-.12a3.51,3.51,0,0,0,.49-.48l.07-.07a3.47,3.47,0,0,0,.4-.65l0-.07c0,.08.06.15.1.22l.06.15a3.51,3.51,0,0,0,.71,1l.08.07a3.52,3.52,0,0,0,.43.34l.05,0a3.5,3.5,0,0,0,1.18.48l.09,0Zm-3-15.11a3.44,3.44,0,0,0,2.75,2.29A2.84,2.84,0,0,1,24,27.54h-.1a2.82,2.82,0,0,1-2.81-2.66A3.51,3.51,0,0,0,23.95,22.85Zm.14,11.33h-.18a2.82,2.82,0,0,1-2.74-2.78h.1a3.49,3.49,0,0,0,2.68-2,3.56,3.56,0,0,0,2.7,2.29h.15A2.81,2.81,0,0,1,24.08,34.18Zm-3.48-8.26h0c0,.08.05.15.09.23a3.51,3.51,0,0,0,.21.39l.1.17a3.55,3.55,0,0,0,.41.49l0,0a3.55,3.55,0,0,0,.47.39l.17.1a3.5,3.5,0,0,0,.39.21l.22.08.4.12.25,0,.2,0a2.8,2.8,0,0,1-2.4,2.46,1.45,1.45,0,0,1-.31,0h-.19a1.73,1.73,0,0,1-.35,0,2.83,2.83,0,0,1-2.37-2.52A3.53,3.53,0,0,0,20.61,25.91Zm-.43,5.46h.09a2.86,2.86,0,0,1-2,2.42h0a3.25,3.25,0,0,1-.69.11h-.08a3.15,3.15,0,0,1-.56-.06,2.83,2.83,0,0,1-2.23-2.5,3.51,3.51,0,0,0,2.75-2.23A3.52,3.52,0,0,0,20.18,31.37ZM18,34.57l.22,0,.22,0h0a3.56,3.56,0,0,0,2.24-2,3.49,3.49,0,0,0,2.8,2.31A2.8,2.8,0,0,1,20.91,37h-.18a2.82,2.82,0,0,1-2.81-2.42Zm9.3,2.7a2.82,2.82,0,0,1-2.77-2.45,3.51,3.51,0,0,0,2.79-2.15,3.51,3.51,0,0,0,2.82,1.81A2.85,2.85,0,0,1,27.25,37.27Zm3.11-3.47a2.82,2.82,0,0,1-2.72-2.13h.24a3.57,3.57,0,0,0,2.67-2.17,3.53,3.53,0,0,0,2.5,1.8h.11A2.83,2.83,0,0,1,30.36,33.8Zm-.26-5.68v0A2.86,2.86,0,0,1,27.81,31h0l-.11,0a2.86,2.86,0,0,1-.86,0l-.12,0h0a2.82,2.82,0,0,1-2.28-2.77,3.48,3.48,0,0,0,2.75-2.23A3.55,3.55,0,0,0,30.1,28.12ZM20.77,39a3.52,3.52,0,0,0,1.54,1.83A9.29,9.29,0,0,1,19.86,40,3.51,3.51,0,0,0,20.77,39Zm6.58.09a3.47,3.47,0,0,0,.76,1,9.5,9.5,0,0,1-2.18.73A3.54,3.54,0,0,0,27.36,39.09Zm4.22-13.72c.18.22.34.44.49.67l.14.23.21.36a2.82,2.82,0,0,1-2,.81,2.86,2.86,0,0,1-2.69-2.28A3.55,3.55,0,0,0,30,23.86,8.52,8.52,0,0,1,31.57,25.38Z" transform="translate(-11.93 -4.57)"/><path class="cls-1" d="M36,30.2a12.13,12.13,0,0,0-2.11-5.75s0,0-.05,0,0,0,0-.05l0,0-.08-.05,0-.06a11.59,11.59,0,0,0-3.07-3l0,0h0l-.11-.07-.08,0a12,12,0,0,0-5.2-1.78l.27-2.13c1.29-1.31,2.38-4.8,3.51-11.26a1.16,1.16,0,0,0-.19-.87,1.18,1.18,0,0,0-2.13.47,57.39,57.39,0,0,1-1.81,7.88H23.06a54.29,54.29,0,0,1-1.91-7.9,1.17,1.17,0,0,0-1.38-.95,1.15,1.15,0,0,0-.75.48,1.19,1.19,0,0,0-.2.9c1.51,8.17,2.75,10.36,3.57,11.22l.22,2.19a12,12,0,0,0-5.24,1.87h0A12,12,0,0,0,14,24.54s0,0,0,0-.13.18-.17.26h0A11.83,11.83,0,0,0,12,30.47a.34.34,0,0,0,0,0c0,.28,0,.55,0,.84s0,.43,0,.63a12,12,0,0,0,1.86,5.81,10.44,10.44,0,0,0,.91,1.27,10.17,10.17,0,0,0,1,1.07l.06,0A12,12,0,0,0,24,43.43a11.91,11.91,0,0,0,7.62-2.72,11.29,11.29,0,0,0,2.17-2.3l0,0a9.69,9.69,0,0,0,.66-1,12,12,0,0,0,1.6-5.65,3.41,3.41,0,0,0,0-.37A10.54,10.54,0,0,0,36,30.2ZM27.37,5.67a.47.47,0,0,1,.55-.39.49.49,0,0,1,.32.2.47.47,0,0,1,.08.35c-.86,4.92-1.72,8.18-2.63,9.89l.24-1.89a.34.34,0,0,0-.32-.39A60,60,0,0,0,27.37,5.67Zm-7.85.17a.49.49,0,0,1,.08-.37.46.46,0,0,1,.3-.19.47.47,0,0,1,.57.38,56.85,56.85,0,0,0,1.87,7.79.34.34,0,0,0-.18.1.35.35,0,0,0-.09.27l.2,1.94C21.33,14,20.42,10.78,19.51,5.84Zm3.28,8.29h2.39l-.66,5.15a11.22,11.22,0,0,0-1.16,0h0ZM35.37,31.67A11.2,11.2,0,0,1,33.86,37a9.35,9.35,0,0,1-.6.93l0,0h0a10.56,10.56,0,0,1-2,2.17h0A11.21,11.21,0,0,1,24,42.73a11.33,11.33,0,0,1-7.76-3.07l-.07-.06a10.84,10.84,0,0,1-.95-1,10.36,10.36,0,0,1-.83-1.16,11.29,11.29,0,0,1-1.75-5.48c0-.19,0-.38,0-.59s0-.55,0-.83a11.15,11.15,0,0,1,1.78-5.34,3,3,0,0,1,.17-.25h0a11.29,11.29,0,0,1,3.08-3.06l0,0h0A11.37,11.37,0,0,1,23.17,20h1.68a11.36,11.36,0,0,1,5.24,1.74l0,0,.09.06,0,0a11.13,11.13,0,0,1,3,2.89l.08.1h0a11.45,11.45,0,0,1,2,5.42,9.75,9.75,0,0,1,.05,1.08A2.8,2.8,0,0,1,35.37,31.67Z" transform="translate(-11.93 -4.57)"/></svg>