<svg id="Layer_1" data-name="Layer 1" xmlns="http://www.w3.org/2000/svg" viewBox="0 0 28.54 36.49"><defs><style>.cls-1{fill:#303030;}</style></defs><title>rings</title><path class="cls-1" d="M36.93,10.68l0,0a11.35,11.35,0,0,0-1.16-1.21,15,15,0,0,0-1.45-1.21,15.84,15.84,0,0,0-1.6-1A13.64,13.64,0,0,0,31,6.41c-.29-.11-.58-.21-.9-.29L29.51,6a5.24,5.24,0,0,0-1.11-.2,4.48,4.48,0,0,0-1,.08,6.38,6.38,0,0,0-1.06.3,9.26,9.26,0,0,0-1.09.5A13.13,13.13,0,0,0,24,7.34c-.41.27-.8.56-1.19.86a15.82,15.82,0,0,0-1.2,1c-.48.45-.89.86-1.2,1.2l-.21.23c-.32.35-.69.75-1,1.14l-.45.55c-.25.31-.52.63-.74.94s-.33.46-.51.7-.46.62-.67.92l-.2.3c-.31.46-.65,1-1,1.42a13.82,13.82,0,0,0-.77,1.25l-.13.23C10.37,25.7,8.59,33.31,10.47,36.6l0,0v0a1.2,1.2,0,0,0,.2.31,14,14,0,0,0,8.17,5.26h.31a3.55,3.55,0,0,0,.53.06c3.64,0,9.11-4.94,13.46-12.33C38.07,21.6,39.69,13.32,36.93,10.68ZM11.24,36.5v0s0,0,0,0a.71.71,0,0,1-.12-.18c-1.75-3.06.07-10.54,4.33-17.81l.13-.23A12.89,12.89,0,0,1,16.29,17c.32-.46.66-1,1-1.43l.2-.3c.2-.29.43-.6.65-.89s.37-.49.53-.72.46-.6.7-.9l.46-.57c.28-.36.63-.75.95-1.09l.21-.23c.3-.33.69-.72,1.16-1.16s.77-.72,1.15-1,.77-.57,1.15-.83a12.48,12.48,0,0,1,1.15-.66,8.6,8.6,0,0,1,1-.46,5.78,5.78,0,0,1,.94-.27,3.8,3.8,0,0,1,.83-.07,4.59,4.59,0,0,1,1,.18l.56.14c.28.08.56.17.83.27a12.8,12.8,0,0,1,1.64.77,15.13,15.13,0,0,1,1.53,1,14.24,14.24,0,0,1,1.23,1,3.87,3.87,0,0,0-.65,0h0a7.24,7.24,0,0,0-3.14,1.06c-3.36,1.92-7,6-10.09,11.25s-5,10.74-5.07,14.7a6.79,6.79,0,0,0,.94,4.12A13.31,13.31,0,0,1,11.24,36.5ZM31.08,11.85c-.29,3.84-2.13,9-4.92,13.67s-6.25,8.66-9.26,10.62c.29-3.79,2.08-8.82,4.92-13.67S28,13.83,31.08,11.85Zm1.49,17.72C28.07,37.21,22.23,42.31,19,41.47a2.15,2.15,0,0,1-.68-.31c-1-.64-1.49-2.08-1.46-4.15,3.2-1.91,6.89-6,9.91-11.13s4.89-10.5,5.06-14.49a6.93,6.93,0,0,1,2.42-.86c1.23,2-.17,6.57-1.9,11.27-.13.39-.29.79-.46,1.22a.33.33,0,0,0,.2.43l.12,0a.38.38,0,0,0,.34-.24c.16-.4.32-.81.46-1.2,2-5.3,3-9.32,2-11.53a2.39,2.39,0,0,1,1.06.37,2.51,2.51,0,0,1,.31.26h0l0,0C38.89,13.53,37.15,21.78,32.57,29.58Z" transform="translate(-9.73 -5.77)"/><path class="cls-1" d="M30.58,26.62a.35.35,0,0,0-.47.15q-.49.94-1,1.88a.35.35,0,0,0,.61.35q.56-1,1.05-1.91A.35.35,0,0,0,30.58,26.62Z" transform="translate(-9.73 -5.77)"/></svg>