<svg id="Layer_1" data-name="Layer 1" xmlns="http://www.w3.org/2000/svg" viewBox="0 0 37.08 24.15"><defs><style>.cls-1{fill:#303030;}</style></defs><title>silver</title><path class="cls-1" d="M16.3,33.13A.66.66,0,0,0,16,34.42l.15,0a.66.66,0,0,0,.14-1.31Z" transform="translate(-5.46 -12.79)"/><path class="cls-1" d="M13.82,32.47a.66.66,0,0,0-.4,1.26.69.69,0,0,0,.2,0,.66.66,0,0,0,.2-1.29Z" transform="translate(-5.46 -12.79)"/><path class="cls-1" d="M11.44,31.56a.66.66,0,1,0,.32.88A.67.67,0,0,0,11.44,31.56Z" transform="translate(-5.46 -12.79)"/><path class="cls-1" d="M18.84,33.57a.66.66,0,0,0-.18,1.32h.09a.66.66,0,0,0,.09-1.32Z" transform="translate(-5.46 -12.79)"/><path class="cls-1" d="M8.33,30.49a.66.66,0,0,0,.54,1,.66.66,0,0,0,.38-1.2A.67.67,0,0,0,8.33,30.49Z" transform="translate(-5.46 -12.79)"/><path class="cls-1" d="M31.69,33.13h0a.66.66,0,0,0,.15,1.31H32a.66.66,0,0,0-.28-1.3Z" transform="translate(-5.46 -12.79)"/><path class="cls-1" d="M34.16,32.48h0a.67.67,0,0,0,.21,1.3.7.7,0,0,0,.2,0,.66.66,0,1,0-.4-1.26Z" transform="translate(-5.46 -12.79)"/><path class="cls-1" d="M21.4,33.83a.66.66,0,0,0-.09,1.32h0a.66.66,0,0,0,0-1.32Z" transform="translate(-5.46 -12.79)"/><path class="cls-1" d="M38.73,30.34h0a.66.66,0,0,0-.16.92.65.65,0,0,0,.54.28.66.66,0,0,0,.38-.12.67.67,0,0,0,.17-.93A.66.66,0,0,0,38.73,30.34Z" transform="translate(-5.46 -12.79)"/><path class="cls-1" d="M36.55,31.56a.66.66,0,0,0,.27,1.26.69.69,0,0,0,.28-.06.66.66,0,0,0-.55-1.2Z" transform="translate(-5.46 -12.79)"/><circle class="cls-1" cx="18.53" cy="21.79" r="0.66"/><path class="cls-1" d="M26.58,33.83a.67.67,0,0,0-.62.71.65.65,0,0,0,.66.62h0a.66.66,0,0,0-.09-1.32Z" transform="translate(-5.46 -12.79)"/><path class="cls-1" d="M29.15,33.58a.65.65,0,0,0-.56.74.66.66,0,0,0,.66.58h.09a.67.67,0,0,0,.57-.75A.66.66,0,0,0,29.15,33.58Z" transform="translate(-5.46 -12.79)"/><path class="cls-1" d="M42.25,26.1V23.19l.1-.06a.67.67,0,0,0,0-.94l-.1-.06V20.67c0-3.5-4.59-6.57-11.69-7.82a4.23,4.23,0,0,0-5,4.16,4.37,4.37,0,0,0,3.78,4.36,23,23,0,0,1,9.46,3.27C35.64,26.87,30,28.24,24,28.24s-11.64-1.37-14.85-3.6a23,23,0,0,1,9.46-3.27A4.43,4.43,0,0,0,22.39,17a4.22,4.22,0,0,0-5-4.16c-7.1,1.24-11.69,4.31-11.69,7.82v1.46l-.1.06a.67.67,0,0,0,0,.94l.1.06V26.1l-.1.06a.68.68,0,0,0-.19.47.7.7,0,0,0,.19.47l.1.06v1.46c0,4.67,8,8.32,18.25,8.32s18.25-3.65,18.25-8.32V27.16l.1-.06a.67.67,0,0,0,0-.94ZM29.5,20.63A3.63,3.63,0,0,1,26.36,17a3.48,3.48,0,0,1,3.47-3.47,3.55,3.55,0,0,1,.6.05c6.62,1.16,11.07,4,11.07,7.08a3,3,0,0,1-.13.9,3.62,3.62,0,0,1-.38.9,5.26,5.26,0,0,1-.69.93,7.35,7.35,0,0,1-.82.77A23,23,0,0,0,29.5,20.63ZM24,29c6.43,0,12.45-1.55,15.7-4l0,0a8.42,8.42,0,0,0,1.13-1,6.18,6.18,0,0,0,.58-.76l.06,0v1.46s0,0,0,0a.62.62,0,0,0-.1-.11.66.66,0,0,0-.93.15h0a.66.66,0,0,0,.15.93.67.67,0,0,0,.39.13.66.66,0,0,0,.3-.08c-1.19,3.68-8.49,6.52-17.31,6.52S7.86,29.37,6.68,25.69a.68.68,0,0,0,.3.07.65.65,0,0,0,.38-.13.66.66,0,0,0,.15-.92h0a.66.66,0,0,0-.92-.15.65.65,0,0,0-.09.1V23.19l.06,0a6.17,6.17,0,0,0,.58.75,8.39,8.39,0,0,0,1.14,1h0C11.54,27.44,17.56,29,24,29Zm-6.43-15.4a3.51,3.51,0,0,1,.6-.05A3.47,3.47,0,0,1,21.64,17a3.68,3.68,0,0,1-3.13,3.62,23,23,0,0,0-10,3.54,7.39,7.39,0,0,1-.82-.77A5.29,5.29,0,0,1,7,22.47a3.68,3.68,0,0,1-.38-.92,3,3,0,0,1-.13-.88C6.5,17.6,10.95,14.75,17.57,13.59ZM24,36.19c-8.83,0-16.14-2.85-17.32-6.53a.68.68,0,0,0,.3.07.66.66,0,1,0-.39-1.2.65.65,0,0,0-.09.1V27.16l0,0C8.81,30.55,15.67,33,24,33s15.19-2.42,17.45-5.83l0,0v1.46s0,0,0,0a.61.61,0,0,0-.1-.1.66.66,0,1,0-.09,1.12C40.12,33.35,32.82,36.19,24,36.19Z" transform="translate(-5.46 -12.79)"/><path class="cls-1" d="M26.62,31.18h0a.66.66,0,1,0-.7-.62A.66.66,0,0,0,26.66,31.18Z" transform="translate(-5.46 -12.79)"/><path class="cls-1" d="M29.23,30.92h.09a.67.67,0,0,0,.57-.75.66.66,0,0,0-.75-.56.65.65,0,0,0-.56.74A.66.66,0,0,0,29.23,30.92Z" transform="translate(-5.46 -12.79)"/><path class="cls-1" d="M31.83,30.47H32a.66.66,0,0,0-.28-1.3.66.66,0,0,0,.14,1.31Z" transform="translate(-5.46 -12.79)"/><path class="cls-1" d="M39.11,27.57a.66.66,0,1,0-.54-.28A.66.66,0,0,0,39.11,27.57Z" transform="translate(-5.46 -12.79)"/><path class="cls-1" d="M34.37,29.8a.7.7,0,0,0,.2,0,.66.66,0,1,0-.2,0Z" transform="translate(-5.46 -12.79)"/><path class="cls-1" d="M36.82,28.86a.69.69,0,0,0,.28-.06.66.66,0,0,0-.55-1.2.67.67,0,0,0-.33.88A.66.66,0,0,0,36.82,28.86Z" transform="translate(-5.46 -12.79)"/><path class="cls-1" d="M13.42,29.76a.52.52,0,0,0,.2,0,.65.65,0,0,0,.63-.46.66.66,0,1,0-.83.43Z" transform="translate(-5.46 -12.79)"/><path class="cls-1" d="M10.89,28.79a.66.66,0,0,0,.87-.32.67.67,0,0,0-.32-.88.66.66,0,0,0-.55,1.21Z" transform="translate(-5.46 -12.79)"/><path class="cls-1" d="M8.5,27.44a.66.66,0,1,0-.17-.92A.66.66,0,0,0,8.5,27.44Z" transform="translate(-5.46 -12.79)"/><path class="cls-1" d="M21.32,31.18h0a.66.66,0,0,0,0-1.32.66.66,0,0,0-.09,1.32Z" transform="translate(-5.46 -12.79)"/><path class="cls-1" d="M16,30.45h0l.14,0a.66.66,0,1,0-.65-.81A.67.67,0,0,0,16,30.45Z" transform="translate(-5.46 -12.79)"/><circle class="cls-1" cx="18.53" cy="17.81" r="0.66"/><path class="cls-1" d="M18.66,30.92h.09a.62.62,0,1,0-.09,0Z" transform="translate(-5.46 -12.79)"/></svg>