<svg id="Layer_1" data-name="Layer 1" xmlns="http://www.w3.org/2000/svg" viewBox="0 0 21.92 39.58"><defs><style>.cls-1{fill:#303030;}</style></defs><title>watches</title><path class="cls-1" d="M23,33.35a9.48,9.48,0,1,0-9.48-9.48A9.49,9.49,0,0,0,23,33.35ZM18.28,16.49,19.14,18a.35.35,0,0,0,.31.18.34.34,0,0,0,.17,0,.35.35,0,0,0,.14-.48l-.87-1.56a8.71,8.71,0,0,1,3.77-1v1.82a.35.35,0,0,0,.35.35h0a.35.35,0,0,0,.35-.35V15.12a8.71,8.71,0,0,1,3.76,1l-.87,1.56a.35.35,0,0,0,.14.48.35.35,0,0,0,.17,0,.35.35,0,0,0,.31-.18l.86-1.55a8.83,8.83,0,0,1,2.66,2.64L28.79,20a.35.35,0,0,0,.34.61l1.6-.9a8.72,8.72,0,0,1,1,4H29.91a.35.35,0,0,0,0,.7h1.85a8.71,8.71,0,0,1-1,3.62l-1.56-.85a.35.35,0,1,0-.34.61l1.54.84a8.83,8.83,0,0,1-2.69,2.68l-.92-1.5a.35.35,0,0,0-.6.37l.91,1.49a8.71,8.71,0,0,1-3.77,1l.06-1.79a.35.35,0,0,0-.34-.36.37.37,0,0,0-.36.34l-.06,1.82a8.72,8.72,0,0,1-3.78-1l.93-1.51a.35.35,0,0,0-.6-.37l-.93,1.52a8.83,8.83,0,0,1-2.64-2.66l1.53-.84a.35.35,0,1,0-.34-.61L15.25,28a8.71,8.71,0,0,1-1-3.62h1.83a.35.35,0,0,0,0-.7H14.24a8.71,8.71,0,0,1,1-3.76l1.63.91a.35.35,0,1,0,.34-.61l-1.62-.91A8.83,8.83,0,0,1,18.28,16.49Z" transform="translate(-12.04 -4.2)"/><path class="cls-1" d="M34,23.88a11,11,0,0,0-3.77-8.27.35.35,0,0,0,0-.13l-.64-3.27a.35.35,0,0,0-.34-.28h-.92L28,5.5a.36.36,0,0,0-.07-.2,1.4,1.4,0,0,0-1.64-.43l-.08,0a6.28,6.28,0,0,0-1.41-.46,7.93,7.93,0,0,0-3.31,0A6.72,6.72,0,0,0,20,4.87a1.4,1.4,0,0,0-1.62.44.35.35,0,0,0-.07.2L18,11.94h-.92a.35.35,0,0,0-.34.28l-.62,3.17a10.9,10.9,0,0,0,0,17l.6,3a.35.35,0,0,0,.34.28H18l.13,6.82a.35.35,0,0,0,.07.21,1.41,1.41,0,0,0,1.62.44,6.74,6.74,0,0,0,1.45.49,7.82,7.82,0,0,0,1.68.18,8.05,8.05,0,0,0,1.63-.17A6.32,6.32,0,0,0,26,43.16l.09-.05a1.41,1.41,0,0,0,1.64-.43.35.35,0,0,0,.07-.19l.52-6.84h.93a.35.35,0,0,0,.34-.28l.61-3.09a.35.35,0,0,0,0-.12A11,11,0,0,0,34,23.88ZM29.37,15a10,10,0,0,0-1.31-.79l.2-1.53h.65Zm-2.1-9.3.34,6.61-.2,1.58c-.22-.1-.44-.2-.66-.28a.34.34,0,0,0,0-.12c.06-3.81-.24-7.76-.26-7.92A.7.7,0,0,1,27.27,5.66Zm-5.67-.6a7.23,7.23,0,0,1,3,0,5.43,5.43,0,0,1,1.21.39.35.35,0,0,0,0,.14s.31,4,.26,7.79a11.07,11.07,0,0,0-5.76-.1c-.05-3.78.25-7.65.26-7.69a.34.34,0,0,0,0-.17A6.17,6.17,0,0,1,21.59,5.07Zm-1.76.5h0c0,.43-.31,4.22-.25,7.88h0c-.26.08-.51.19-.76.3l-.19-1.48L19,5.66A.7.7,0,0,1,19.84,5.56Zm-2.49,7.07H18l.18,1.4a9.25,9.25,0,0,0-1.25.71ZM12.74,23.88a10.28,10.28,0,0,1,4.41-8.43,8.58,8.58,0,0,1,1.56-.89,10.27,10.27,0,0,1,8.91.16h0a9.21,9.21,0,0,1,1.62,1h0A10.26,10.26,0,0,1,18.51,33.08a9.75,9.75,0,0,1-1.44-.85A10.25,10.25,0,0,1,12.74,23.88ZM17,33a10.43,10.43,0,0,0,1.21.7L18,35h-.66Zm1.84,9.32-.13-7,.17-1.3c.2.08.39.17.59.24,0,3.47.16,7,.23,8.18h0A.69.69,0,0,1,18.8,42.32Zm5.61.61a7.24,7.24,0,0,1-3,0,6.2,6.2,0,0,1-1-.32c-.05-.8-.29-4.5-.25-8.16a10.61,10.61,0,0,0,5.76,0c0,3.57-.18,7.18-.24,8.1A5.63,5.63,0,0,1,24.41,42.93Zm2.66-.62a.71.71,0,0,1-.72.14c.07-1.11.28-4.71.23-8.22.28-.1.56-.22.84-.35l.19,1.4ZM28.92,35h-.65l-.19-1.38a11.44,11.44,0,0,0,1.26-.75Z" transform="translate(-12.04 -4.2)"/><path class="cls-1" d="M22.82,24.16a.35.35,0,0,0,.43,0l5.38-4.78a.35.35,0,1,0-.46-.52L23,23.43l-4-2.74a.35.35,0,0,0-.39.58Z" transform="translate(-12.04 -4.2)"/></svg>