<svg id="Layer_1" data-name="Layer 1" xmlns="http://www.w3.org/2000/svg" viewBox="0 0 38.5 32.62"><defs><style>.cls-1{fill:#231f20;}</style></defs><title>wedding</title><path class="cls-1" d="M40.63,12.9,37.32,9.55a8.45,8.45,0,0,0-6.14-2.36,15.07,15.07,0,0,0-8.57,3,15.07,15.07,0,0,0-5.48-1.12A9.39,9.39,0,0,0,10.3,11.7L6.84,15.16l-.2.24h0c-4.16,4.48-2.76,12.83,3.21,18.8,3.51,3.51,8.07,5.6,12.2,5.6a9.43,9.43,0,0,0,6.73-2.53h0l.09-.09h0l3.46-3.46.2-.24h0l.07-.07a18.19,18.19,0,0,0,5.13-3.63C43.08,24.43,44.33,16.94,40.63,12.9Zm-1.74,1c.69,3.68-.85,8.05-4,11.57a18.51,18.51,0,0,0-5.53-10.83A21.3,21.3,0,0,0,27.39,13,13,13,0,0,1,36,11.1a8,8,0,0,1,2.17.73A7.94,7.94,0,0,1,38.88,13.94ZM31.17,7.82A7.84,7.84,0,0,1,36.87,10a6.88,6.88,0,0,1,.76.9,8.84,8.84,0,0,0-1.5-.42,13.72,13.72,0,0,0-9.29,2.07q-.41-.3-.84-.58h0c-.32-.21-.65-.41-1-.6l-.31-.17L24,10.83l-.39-.18-.34-.16A14.29,14.29,0,0,1,31.17,7.82ZM10.74,12.14a8.78,8.78,0,0,1,6.38-2.43,14.51,14.51,0,0,1,5.4,1.13,18.7,18.7,0,0,1,4.11,2.34,20.77,20.77,0,0,1,2.24,1.94,17.62,17.62,0,0,1,5.39,11l-.08.08a18.22,18.22,0,0,1-2.84,2.32,18.81,18.81,0,0,0-5.47-10.37,21.29,21.29,0,0,0-2.72-2.3,19.14,19.14,0,0,0-4-2.18,14.91,14.91,0,0,0-5.51-1.12,11.33,11.33,0,0,0-2.07.19,9.79,9.79,0,0,0-1.77.5A7.71,7.71,0,0,1,10.74,12.14Zm7.68,16a8.9,8.9,0,0,0,.39,1.42,6.84,6.84,0,0,1-.84-.71c-3.28-3.28-2.75-9.49,1.19-14.53l.56.24.25.11q.46.22.92.47l.17.1.73.43.31.2.4.27C19.27,19.82,17.71,24.39,18.42,28.19ZM23,16.55a20.61,20.61,0,0,1,2.42,2.05,18,18,0,0,1,5.32,10.3,13.13,13.13,0,0,1-8.85,2,7.93,7.93,0,0,1-2.17-.73,8,8,0,0,1-.7-2.1C18.36,24.44,19.89,20.05,23,16.55Zm5.4,20.19A8.78,8.78,0,0,1,22,39.18c-4,0-8.36-2-11.75-5.42-5.82-5.82-7.16-14-3-18.14l.2-.24.92-.92-.13.24.09,0a9.74,9.74,0,0,0-.52,1.78C7,21.06,9.08,26.53,13.28,30.73c3.51,3.51,8.07,5.6,12.2,5.6a11.41,11.41,0,0,0,2.09-.19,9.71,9.71,0,0,0,1.87-.55l0,.09.22-.12Zm1.47-2.05a8.91,8.91,0,0,1-2.44.83,10.81,10.81,0,0,1-2,.18c-4,0-8.36-2-11.75-5.42C9.67,26.23,7.67,21,8.49,16.56a8.9,8.9,0,0,1,.79-2.36,8.92,8.92,0,0,1,2.44-.83,13.05,13.05,0,0,1,6.84.76c-4,5.23-4.53,11.41-1.25,15l0,0,3.42,3.42h0a8.48,8.48,0,0,0,6,2.26h0a12.71,12.71,0,0,0,3.31-.47Zm7.39-5.36a17.56,17.56,0,0,1-5,3.53,15.22,15.22,0,0,1-1.78.7,12.36,12.36,0,0,1-3.75.61h0A7.83,7.83,0,0,1,21.06,32L21,31.92l-.81-.82.1.05,0-.09a8.78,8.78,0,0,0,1.6.46,13.63,13.63,0,0,0,9-1.94v0l.43-.27a18.82,18.82,0,0,0,3.37-2.68l.28-.29h0c3.58-3.73,5.34-8.53,4.59-12.55a8.79,8.79,0,0,0-.43-1.52l.09,0-.07-.13.65.65,0,0,.23.23C43.69,16.85,42.49,24.13,37.28,29.34Z" transform="translate(-4.25 -7.19)"/></svg>